<svg xmlns="http://www.w3.org/2000/svg" height="48" viewBox="0 -960 960 960" width="48"><path d="M682.823-277q26.025 0 43.601-17.971Q744-312.941 744-337.853t-18.015-43.029Q707.971-399 682.912-399t-42.985 17.397Q622-364.206 622-338.353t17.816 43.603Q657.632-277 682.823-277Zm-.231 121q32.535 0 59.221-13.274Q768.5-182.547 785.5-208.5q-24.5-12.5-49.776-20-25.277-7.5-52.575-7.5-26.948 0-53.048 7.5Q604-221 581.5-208.5q16 26 42.466 39.25Q650.431-156 682.592-156Zm-202.606 22q-114.039-36.567-191.013-141.768Q212-380.97 212-518.062v-205.662L480-824l268 100v238.5q-5.5 0-11.75-2.25T726-490.94V-710l-246-90.5-246 90.162V-518q0 72 22.5 133.5t60 109.75q37.5 48.25 85 81.25t99 44l3-1q1.5 0 3.75 2.25l2.75 2.75q-8.5 4.5-15.75 7t-14.264 4.5Zm203.995 2q-60.02 0-102-42Q540-216 540-276q0-60.755 41.971-102.878Q623.941-421 684.481-421 744-421 786-378.878 828-336.755 828-276q0 60-42 102t-102.019 42ZM480-475.5Z"/></svg>